<?xml version="1.0" encoding="utf-8"?>
<!-- Generator: Adobe Illustrator 23.1.0, SVG Export Plug-In . SVG Version: 6.00 Build 0)  -->
<svg version="1.1" id="图层_1" xmlns="http://www.w3.org/2000/svg" xmlns:xlink="http://www.w3.org/1999/xlink" x="0px" y="0px"
	 viewBox="0 0 110 20" style="enable-background:new 0 0 110 20;" xml:space="preserve">
<style type="text/css">
	.st0{clip-path:url(#SVGID_2_);}
	.st1{fill:#555555;}
	.st2{fill:#007EC6;}
	.st3{fill:url(#SVGID_3_);}
	.st4{enable-background:new    ;}
	.st5{fill:none;}
	.st6{fill:#010101;}
	.st7{font-family:'Verdana';}
	.st8{font-size:11px;}
	.st9{fill:#FFFFFF;}
</style>
<title>Built by: webjeda</title>
<g>
	<defs>
		<path id="SVGID_1_" d="M3,0h104c1.7,0,3,1.3,3,3v14c0,1.7-1.3,3-3,3H3c-1.7,0-3-1.3-3-3V3C0,1.3,1.3,0,3,0z"/>
	</defs>
	<clipPath id="SVGID_2_">
		<use xlink:href="#SVGID_1_"  style="overflow:visible;"/>
	</clipPath>
	<g class="st0">
		<rect class="st1" width="53" height="20"/>
		<rect x="53" class="st2" width="57" height="20"/>
		
			<linearGradient id="SVGID_3_" gradientUnits="userSpaceOnUse" x1="-247.2273" y1="387.75" x2="-247.2273" y2="386.75" gradientTransform="matrix(110 0 0 -20 27250 7755)">
			<stop  offset="0" style="stop-color:#BBBBBB;stop-opacity:0.1"/>
			<stop  offset="1" style="stop-color:#000000;stop-opacity:0.1"/>
		</linearGradient>
		<rect class="st3" width="110" height="20"/>
	</g>
</g>
<g text-rendering="geometricPrecision">
	<g class="st4">
		<rect x="6.5" y="5.5" class="st5" width="43" height="12.8"/>
		<text transform="matrix(1 0 0 1 6.4614 15)"><tspan x="0" y="0" class="st6 st7 st8">Built</tspan><tspan x="24.9" y="0" class="st6 st7 st8"> </tspan><tspan x="29.6" y="0" class="st6 st7 st8">by</tspan></text>
	</g>
	<rect x="6.5" y="4.5" class="st5" width="43" height="12.8"/>
	<text transform="matrix(1 0 0 1 6.4614 14)" class="st4"><tspan x="0" y="0" class="st9 st7 st8">Built</tspan><tspan x="24.9" y="0" class="st9 st7 st8"> </tspan><tspan x="29.6" y="0" class="st9 st7 st8">by</tspan></text>
	<g class="st4">
		<rect x="57.4" y="5.5" class="st5" width="47" height="12.8"/>
		<text transform="matrix(1 0 0 1 57.3965 15)"><tspan x="0" y="0" class="st6 st7 st8">X-Wein</tspan><tspan x="41.3" y="0" class="st6 st7 st8">s</tspan></text>
	</g>
	<rect x="57.4" y="4.5" class="st5" width="47" height="12.8"/>
	<text transform="matrix(1 0 0 1 57.3965 14)" class="st4"><tspan x="0" y="0" class="st9 st7 st8">X-Wein</tspan><tspan x="41.3" y="0" class="st9 st7 st8">s   </tspan></text>
</g>
</svg>
